<svg width="150" height="150" viewBox="0 0 150 150" fill="none" xmlns="http://www.w3.org/2000/svg">
<circle cx="75" cy="75" r="75" fill="#141E30"/>
<path d="M40.2031 88.4375V92H21.7578V88.4375H40.2031ZM39.5234 69.7109L22.7422 92H20.0938V88.8125L36.7578 66.6406H39.5234V69.7109ZM37.6016 66.6406V70.2266H20.2812V66.6406H37.6016ZM55.7422 66.6406V69.9688H42.0312V66.6406H55.7422ZM46.6719 60.4766H51.0078V85.7188C51.0078 86.5781 51.1406 87.2266 51.4062 87.6641C51.6719 88.1016 52.0156 88.3906 52.4375 88.5312C52.8594 88.6719 53.3125 88.7422 53.7969 88.7422C54.1562 88.7422 54.5312 88.7109 54.9219 88.6484C55.3281 88.5703 55.6328 88.5078 55.8359 88.4609L55.8594 92C55.5156 92.1094 55.0625 92.2109 54.5 92.3047C53.9531 92.4141 53.2891 92.4688 52.5078 92.4688C51.4453 92.4688 50.4688 92.2578 49.5781 91.8359C48.6875 91.4141 47.9766 90.7109 47.4453 89.7266C46.9297 88.7266 46.6719 87.3828 46.6719 85.6953V60.4766ZM76.8125 87.0781V56H81.1719V92H77.1875L76.8125 87.0781ZM59.75 79.6016V79.1094C59.75 77.1719 59.9844 75.4141 60.4531 73.8359C60.9375 72.2422 61.6172 70.875 62.4922 69.7344C63.3828 68.5938 64.4375 67.7188 65.6562 67.1094C66.8906 66.4844 68.2656 66.1719 69.7812 66.1719C71.375 66.1719 72.7656 66.4531 73.9531 67.0156C75.1562 67.5625 76.1719 68.3672 77 69.4297C77.8438 70.4766 78.5078 71.7422 78.9922 73.2266C79.4766 74.7109 79.8125 76.3906 80 78.2656V80.4219C79.8281 82.2812 79.4922 83.9531 78.9922 85.4375C78.5078 86.9219 77.8438 88.1875 77 89.2344C76.1719 90.2812 75.1562 91.0859 73.9531 91.6484C72.75 92.1953 71.3438 92.4688 69.7344 92.4688C68.25 92.4688 66.8906 92.1484 65.6562 91.5078C64.4375 90.8672 63.3828 89.9688 62.4922 88.8125C61.6172 87.6562 60.9375 86.2969 60.4531 84.7344C59.9844 83.1562 59.75 81.4453 59.75 79.6016ZM64.1094 79.1094V79.6016C64.1094 80.8672 64.2344 82.0547 64.4844 83.1641C64.75 84.2734 65.1562 85.25 65.7031 86.0938C66.25 86.9375 66.9453 87.6016 67.7891 88.0859C68.6328 88.5547 69.6406 88.7891 70.8125 88.7891C72.25 88.7891 73.4297 88.4844 74.3516 87.875C75.2891 87.2656 76.0391 86.4609 76.6016 85.4609C77.1641 84.4609 77.6016 83.375 77.9141 82.2031V76.5547C77.7266 75.6953 77.4531 74.8672 77.0938 74.0703C76.75 73.2578 76.2969 72.5391 75.7344 71.9141C75.1875 71.2734 74.5078 70.7656 73.6953 70.3906C72.8984 70.0156 71.9531 69.8281 70.8594 69.8281C69.6719 69.8281 68.6484 70.0781 67.7891 70.5781C66.9453 71.0625 66.25 71.7344 65.7031 72.5938C65.1562 73.4375 64.75 74.4219 64.4844 75.5469C64.2344 76.6562 64.1094 77.8438 64.1094 79.1094ZM98.4453 92.4688C96.6797 92.4688 95.0781 92.1719 93.6406 91.5781C92.2188 90.9688 90.9922 90.1172 89.9609 89.0234C88.9453 87.9297 88.1641 86.6328 87.6172 85.1328C87.0703 83.6328 86.7969 81.9922 86.7969 80.2109V79.2266C86.7969 77.1641 87.1016 75.3281 87.7109 73.7188C88.3203 72.0938 89.1484 70.7188 90.1953 69.5938C91.2422 68.4688 92.4297 67.6172 93.7578 67.0391C95.0859 66.4609 96.4609 66.1719 97.8828 66.1719C99.6953 66.1719 101.258 66.4844 102.57 67.1094C103.898 67.7344 104.984 68.6094 105.828 69.7344C106.672 70.8438 107.297 72.1562 107.703 73.6719C108.109 75.1719 108.312 76.8125 108.312 78.5938V80.5391H89.375V77H103.977V76.6719C103.914 75.5469 103.68 74.4531 103.273 73.3906C102.883 72.3281 102.258 71.4531 101.398 70.7656C100.539 70.0781 99.3672 69.7344 97.8828 69.7344C96.8984 69.7344 95.9922 69.9453 95.1641 70.3672C94.3359 70.7734 93.625 71.3828 93.0312 72.1953C92.4375 73.0078 91.9766 74 91.6484 75.1719C91.3203 76.3438 91.1562 77.6953 91.1562 79.2266V80.2109C91.1562 81.4141 91.3203 82.5469 91.6484 83.6094C91.9922 84.6562 92.4844 85.5781 93.125 86.375C93.7812 87.1719 94.5703 87.7969 95.4922 88.25C96.4297 88.7031 97.4922 88.9297 98.6797 88.9297C100.211 88.9297 101.508 88.6172 102.57 87.9922C103.633 87.3672 104.562 86.5312 105.359 85.4844L107.984 87.5703C107.438 88.3984 106.742 89.1875 105.898 89.9375C105.055 90.6875 104.016 91.2969 102.781 91.7656C101.562 92.2344 100.117 92.4688 98.4453 92.4688ZM120.758 88.0859L127.695 66.6406H132.125L123.008 92H120.102L120.758 88.0859ZM114.969 66.6406L122.117 88.2031L122.609 92H119.703L110.516 66.6406H114.969Z" fill="white"/>
<path d="M40.2031 88.4375H41.2031V87.4375H40.2031V88.4375ZM40.2031 92V93H41.2031V92H40.2031ZM21.7578 92H20.7578V93H21.7578V92ZM21.7578 88.4375V87.4375H20.7578V88.4375H21.7578ZM39.5234 69.7109L40.3223 70.3124L40.5234 70.0453V69.7109H39.5234ZM22.7422 92V93H23.241L23.5411 92.6015L22.7422 92ZM20.0938 92H19.0938V93H20.0938V92ZM20.0938 88.8125L19.2944 88.2117L19.0938 88.4786V88.8125H20.0938ZM36.7578 66.6406V65.6406H36.2584L35.9584 66.0398L36.7578 66.6406ZM39.5234 66.6406H40.5234V65.6406H39.5234V66.6406ZM37.6016 66.6406H38.6016V65.6406H37.6016V66.6406ZM37.6016 70.2266V71.2266H38.6016V70.2266H37.6016ZM20.2812 70.2266H19.2812V71.2266H20.2812V70.2266ZM20.2812 66.6406V65.6406H19.2812V66.6406H20.2812ZM39.2031 88.4375V92H41.2031V88.4375H39.2031ZM40.2031 91H21.7578V93H40.2031V91ZM22.7578 92V88.4375H20.7578V92H22.7578ZM21.7578 89.4375H40.2031V87.4375H21.7578V89.4375ZM38.7245 69.1095L21.9433 91.3985L23.5411 92.6015L40.3223 70.3124L38.7245 69.1095ZM22.7422 91H20.0938V93H22.7422V91ZM21.0938 92V88.8125H19.0938V92H21.0938ZM20.8931 89.4133L37.5572 67.2414L35.9584 66.0398L19.2944 88.2117L20.8931 89.4133ZM36.7578 67.6406H39.5234V65.6406H36.7578V67.6406ZM38.5234 66.6406V69.7109H40.5234V66.6406H38.5234ZM36.6016 66.6406V70.2266H38.6016V66.6406H36.6016ZM37.6016 69.2266H20.2812V71.2266H37.6016V69.2266ZM21.2812 70.2266V66.6406H19.2812V70.2266H21.2812ZM20.2812 67.6406H37.6016V65.6406H20.2812V67.6406ZM55.7422 66.6406H56.7422V65.6406H55.7422V66.6406ZM55.7422 69.9688V70.9688H56.7422V69.9688H55.7422ZM42.0312 69.9688H41.0312V70.9688H42.0312V69.9688ZM42.0312 66.6406V65.6406H41.0312V66.6406H42.0312ZM46.6719 60.4766V59.4766H45.6719V60.4766H46.6719ZM51.0078 60.4766H52.0078V59.4766H51.0078V60.4766ZM54.9219 88.6484L55.0799 89.6359L55.0953 89.6334L55.1107 89.6304L54.9219 88.6484ZM55.8359 88.4609L56.8359 88.4543L56.8276 87.2058L55.6111 87.4865L55.8359 88.4609ZM55.8594 92L56.1626 92.9529L56.8642 92.7297L56.8594 91.9934L55.8594 92ZM54.5 92.3047L54.3356 91.3183L54.3197 91.3209L54.3039 91.3241L54.5 92.3047ZM47.4453 89.7266L46.5565 90.1849L46.5608 90.1932L46.5653 90.2015L47.4453 89.7266ZM54.7422 66.6406V69.9688H56.7422V66.6406H54.7422ZM55.7422 68.9688H42.0312V70.9688H55.7422V68.9688ZM43.0312 69.9688V66.6406H41.0312V69.9688H43.0312ZM42.0312 67.6406H55.7422V65.6406H42.0312V67.6406ZM46.6719 61.4766H51.0078V59.4766H46.6719V61.4766ZM50.0078 60.4766V85.7188H52.0078V60.4766H50.0078ZM50.0078 85.7188C50.0078 86.6508 50.1465 87.516 50.5515 88.183L52.261 87.1451C52.1348 86.9372 52.0078 86.5054 52.0078 85.7188H50.0078ZM50.5515 88.183C50.9204 88.7907 51.4412 89.2532 52.1213 89.4799L52.7537 87.5826C52.5901 87.528 52.4234 87.4124 52.261 87.1451L50.5515 88.183ZM52.1213 89.4799C52.6538 89.6574 53.2146 89.7422 53.7969 89.7422V87.7422C53.4104 87.7422 53.0649 87.6863 52.7537 87.5826L52.1213 89.4799ZM53.7969 89.7422C54.2141 89.7422 54.6421 89.7059 55.0799 89.6359L54.7639 87.661C54.4204 87.716 54.0984 87.7422 53.7969 87.7422V89.7422ZM55.1107 89.6304C55.5198 89.5518 55.8391 89.4865 56.0608 89.4353L55.6111 87.4865C55.4265 87.5291 55.1365 87.5888 54.733 87.6664L55.1107 89.6304ZM54.836 88.4676L54.8594 92.0066L56.8594 91.9934L56.8359 88.4543L54.836 88.4676ZM55.5562 91.0471C55.276 91.1362 54.8747 91.2284 54.3356 91.3183L54.6644 93.2911C55.2503 93.1934 55.7552 93.0825 56.1626 92.9529L55.5562 91.0471ZM54.3039 91.3241C53.8415 91.4166 53.2472 91.4688 52.5078 91.4688V93.4688C53.3309 93.4688 54.0648 93.4115 54.6961 93.2853L54.3039 91.3241ZM52.5078 91.4688C51.5816 91.4688 50.7528 91.2858 50.0062 90.9322L49.15 92.7397C50.1847 93.2298 51.309 93.4688 52.5078 93.4688V91.4688ZM50.0062 90.9322C49.3335 90.6135 48.7697 90.075 48.3253 89.2516L46.5653 90.2015C47.1834 91.3469 48.0415 92.2146 49.15 92.7397L50.0062 90.9322ZM48.3341 89.2683C47.919 88.4632 47.6719 87.2965 47.6719 85.6953H45.6719C45.6719 87.4691 45.9404 88.9899 46.5565 90.1849L48.3341 89.2683ZM47.6719 85.6953V60.4766H45.6719V85.6953H47.6719ZM76.8125 87.0781H75.8125V87.1162L75.8154 87.1541L76.8125 87.0781ZM76.8125 56V55H75.8125V56H76.8125ZM81.1719 56H82.1719V55H81.1719V56ZM81.1719 92V93H82.1719V92H81.1719ZM77.1875 92L76.1904 92.076L76.2608 93H77.1875V92ZM60.4531 73.8359L59.4963 73.5451L59.4945 73.5512L60.4531 73.8359ZM62.4922 69.7344L61.704 69.1189L61.6988 69.1257L62.4922 69.7344ZM65.6562 67.1094L66.1035 68.0038L66.108 68.0015L65.6562 67.1094ZM73.9531 67.0156L73.525 67.9194L73.5322 67.9227L73.5393 67.926L73.9531 67.0156ZM77 69.4297L76.2113 70.0444L76.2163 70.0509L76.2214 70.0572L77 69.4297ZM80 78.2656H81V78.2157L80.995 78.1661L80 78.2656ZM80 80.4219L80.9958 80.5139L81 80.468V80.4219H80ZM78.9922 85.4375L78.0445 85.1183L78.0415 85.1273L78.9922 85.4375ZM77 89.2344L76.2214 88.6068L76.2157 88.614L77 89.2344ZM73.9531 91.6484L74.367 92.5589L74.3767 92.5543L73.9531 91.6484ZM65.6562 91.5078L65.191 92.393L65.1956 92.3954L65.6562 91.5078ZM62.4922 88.8125L61.6948 89.416L61.7 89.4227L62.4922 88.8125ZM60.4531 84.7344L59.4945 85.0191L59.498 85.0305L60.4531 84.7344ZM64.4844 83.1641L63.5088 83.3839L63.5119 83.3969L64.4844 83.1641ZM67.7891 88.0859L67.2911 88.9533L67.3034 88.9601L67.7891 88.0859ZM74.3516 87.875L73.8066 87.0365L73.8001 87.0408L74.3516 87.875ZM77.9141 82.2031L78.8803 82.4608L78.9141 82.3342V82.2031H77.9141ZM77.9141 76.5547H78.9141V76.4469L78.8911 76.3415L77.9141 76.5547ZM77.0938 74.0703L76.1728 74.46L76.1773 74.4707L76.1822 74.4814L77.0938 74.0703ZM75.7344 71.9141L74.9738 72.5633L74.9823 72.5733L74.9911 72.583L75.7344 71.9141ZM73.6953 70.3906L73.2695 71.2955L73.2763 71.2986L73.6953 70.3906ZM67.7891 70.5781L68.2869 71.4454L68.292 71.4425L67.7891 70.5781ZM65.7031 72.5938L66.5423 73.1377L66.5468 73.1306L65.7031 72.5938ZM64.4844 75.5469L63.5111 75.3171L63.5088 75.327L64.4844 75.5469ZM77.8125 87.0781V56H75.8125V87.0781H77.8125ZM76.8125 57H81.1719V55H76.8125V57ZM80.1719 56V92H82.1719V56H80.1719ZM81.1719 91H77.1875V93H81.1719V91ZM78.1846 91.924L77.8096 87.0022L75.8154 87.1541L76.1904 92.076L78.1846 91.924ZM60.75 79.6016V79.1094H58.75V79.6016H60.75ZM60.75 79.1094C60.75 77.2517 60.9748 75.5917 61.4117 74.1207L59.4945 73.5512C58.994 75.2364 58.75 77.092 58.75 79.1094H60.75ZM61.4099 74.1267C61.8648 72.6299 62.4943 71.3745 63.2856 70.343L61.6988 69.1257C60.7401 70.3755 60.0102 71.8544 59.4963 73.5451L61.4099 74.1267ZM63.2804 70.3498C64.0853 69.3189 65.0259 68.5426 66.1035 68.0038L65.209 66.2149C63.8491 66.8949 62.6803 67.8686 61.704 69.1189L63.2804 70.3498ZM66.108 68.0015C67.1893 67.454 68.4073 67.1719 69.7812 67.1719V65.1719C68.1239 65.1719 66.5919 65.5147 65.2045 66.2172L66.108 68.0015ZM69.7812 67.1719C71.2579 67.1719 72.4968 67.4323 73.525 67.9194L74.3812 66.1119C73.0345 65.474 71.4921 65.1719 69.7812 65.1719V67.1719ZM73.5393 67.926C74.5925 68.4047 75.4804 69.1067 76.2113 70.0444L77.7887 68.8149C76.8633 67.6276 75.72 66.7203 74.3669 66.1053L73.5393 67.926ZM76.2214 70.0572C76.9778 70.9957 77.5888 72.1494 78.0415 73.5368L79.9429 72.9163C79.4268 71.3349 78.7097 69.9574 77.7786 68.8022L76.2214 70.0572ZM78.0415 73.5368C78.4995 74.9404 78.8232 76.5476 79.005 78.3651L80.995 78.1661C80.8018 76.2337 80.4536 74.4815 79.9429 72.9163L78.0415 73.5368ZM79 78.2656V80.4219H81V78.2656H79ZM79.0042 80.3298C78.8382 82.1262 78.5155 83.72 78.0445 85.1183L79.9399 85.7567C80.4689 84.1863 80.8181 82.4363 80.9958 80.5139L79.0042 80.3298ZM78.0415 85.1273C77.5888 86.5146 76.9778 87.6683 76.2214 88.6068L77.7786 89.8619C78.7097 88.7067 79.4268 87.3291 79.9429 85.7477L78.0415 85.1273ZM76.2157 88.614C75.4835 89.5396 74.5912 90.2462 73.5296 90.7426L74.3767 92.5543C75.7213 91.9256 76.8602 91.0229 77.7843 89.8548L76.2157 88.614ZM73.5393 90.7381C72.4913 91.2145 71.2314 91.4688 69.7344 91.4688V93.4688C71.4561 93.4688 73.0087 93.1762 74.3669 92.5588L73.5393 90.7381ZM69.7344 91.4688C68.3993 91.4688 67.1994 91.182 66.1169 90.6202L65.1956 92.3954C66.5818 93.1148 68.1007 93.4688 69.7344 93.4688V91.4688ZM66.1215 90.6226C65.0379 90.053 64.0925 89.2514 63.2844 88.2023L61.7 89.4227C62.6731 90.6861 63.8371 91.6813 65.191 92.393L66.1215 90.6226ZM63.2896 88.2091C62.493 87.1564 61.8627 85.904 61.4083 84.4383L59.498 85.0305C60.0123 86.6897 60.7414 88.1561 61.6948 89.4159L63.2896 88.2091ZM61.4117 84.4496C60.9735 82.9743 60.75 81.3603 60.75 79.6016H58.75C58.75 81.5303 58.9953 83.3382 59.4945 85.0191L61.4117 84.4496ZM63.1094 79.1094V79.6016H65.1094V79.1094H63.1094ZM63.1094 79.6016C63.1094 80.933 63.2409 82.1948 63.5088 83.3839L65.4599 82.9442C65.2279 81.9146 65.1094 80.8014 65.1094 79.6016H63.1094ZM63.5119 83.3969C63.8004 84.6021 64.2476 85.6866 64.864 86.6376L66.5423 85.5499C66.0649 84.8134 65.6996 83.9448 65.4569 82.9312L63.5119 83.3969ZM64.864 86.6376C65.4943 87.6101 66.3049 88.387 67.2912 88.9532L68.2869 87.2187C67.5857 86.8161 67.0057 86.2649 66.5423 85.5499L64.864 86.6376ZM67.3034 88.9601C68.3244 89.5273 69.5069 89.7891 70.8125 89.7891V87.7891C69.7744 87.7891 68.9412 87.5821 68.2747 87.2118L67.3034 88.9601ZM70.8125 89.7891C72.3878 89.7891 73.7749 89.4549 74.903 88.7092L73.8001 87.0408C73.0845 87.5138 72.1122 87.7891 70.8125 87.7891V89.7891ZM74.8966 88.7134C75.973 88.0137 76.8336 87.0881 77.4731 85.9512L75.73 84.9707C75.2445 85.8338 74.6051 86.5175 73.8066 87.0366L74.8966 88.7134ZM77.4731 85.9512C78.0791 84.8739 78.5474 83.7092 78.8803 82.4608L76.9478 81.9455C76.6557 83.0408 76.249 84.048 75.73 84.9707L77.4731 85.9512ZM78.9141 82.2031V76.5547H76.9141V82.2031H78.9141ZM78.8911 76.3415C78.6888 75.4145 78.3935 74.52 78.0053 73.6592L76.1822 74.4814C76.5127 75.2144 76.7643 75.9761 76.937 76.7679L78.8911 76.3415ZM78.0147 73.6807C77.6298 72.7709 77.1181 71.9567 76.4777 71.2451L74.9911 72.583C75.4756 73.1214 75.8702 73.7447 76.1728 74.46L78.0147 73.6807ZM76.4949 71.2648C75.8485 70.5075 75.0497 69.9144 74.1144 69.4827L73.2763 71.2986C73.9659 71.6169 74.5265 72.0394 74.9738 72.5633L76.4949 71.2648ZM74.1211 69.4858C73.1628 69.0349 72.0656 68.8281 70.8594 68.8281V70.8281C71.8406 70.8281 72.634 70.9964 73.2695 71.2954L74.1211 69.4858ZM70.8594 68.8281C69.5297 68.8281 68.3255 69.1091 67.2862 69.7138L68.292 71.4425C68.9714 71.0472 69.8141 70.8281 70.8594 70.8281V68.8281ZM67.2912 69.7109C66.3005 70.2796 65.489 71.0677 64.8595 72.0569L66.5468 73.1306C67.011 72.4011 67.5901 71.8454 68.2869 71.4454L67.2912 69.7109ZM64.864 72.0499C64.2462 73.0031 63.7992 74.0969 63.5111 75.3171L65.4576 75.7767C65.7008 74.7468 66.0663 73.8719 66.5423 73.1376L64.864 72.0499ZM63.5088 75.327C63.2409 76.5161 63.1094 77.778 63.1094 79.1094H65.1094C65.1094 77.9095 65.2279 76.7964 65.4599 75.7667L63.5088 75.327ZM93.6406 91.5781L93.2467 92.4974L93.2589 92.5024L93.6406 91.5781ZM89.9609 89.0234L89.2281 89.7039L89.2333 89.7095L89.9609 89.0234ZM87.7109 73.7188L88.6461 74.0729L88.6473 74.0699L87.7109 73.7188ZM102.57 67.1094L102.14 68.0122L102.145 68.0142L102.57 67.1094ZM105.828 69.7344L105.028 70.3344L105.032 70.3397L105.828 69.7344ZM107.703 73.6719L106.737 73.9308L106.738 73.9333L107.703 73.6719ZM108.312 80.5391V81.5391H109.312V80.5391H108.312ZM89.375 80.5391H88.375V81.5391H89.375V80.5391ZM89.375 77V76H88.375V77H89.375ZM103.977 77V78H104.977V77H103.977ZM103.977 76.6719H104.977V76.6441L104.975 76.6164L103.977 76.6719ZM103.273 73.3906L102.335 73.7357L102.339 73.7478L103.273 73.3906ZM95.1641 70.3672L95.6045 71.265L95.6113 71.2617L95.618 71.2582L95.1641 70.3672ZM91.6484 83.6094L90.693 83.9044L90.6956 83.9129L90.6983 83.9213L91.6484 83.6094ZM93.125 86.375L92.3456 87.0016L92.3531 87.0107L93.125 86.375ZM95.4922 88.25L95.0511 89.1475L95.057 89.1503L95.4922 88.25ZM105.359 85.4844L105.982 84.7015L105.182 84.0662L104.564 84.8787L105.359 85.4844ZM107.984 87.5703L108.819 88.1214L109.324 87.3572L108.607 86.7874L107.984 87.5703ZM102.781 91.7656L102.426 90.8308L102.422 90.8323L102.781 91.7656ZM98.4453 91.4688C96.7931 91.4688 95.3235 91.1913 94.0224 90.6539L93.2589 92.5024C94.8327 93.1525 96.5663 93.4688 98.4453 93.4688V91.4688ZM94.0345 90.659C92.7349 90.102 91.623 89.3285 90.6885 88.3374L89.2333 89.7095C90.3614 90.9059 91.7026 91.8355 93.2467 92.4973L94.0345 90.659ZM90.6937 88.343C89.775 87.3536 89.0611 86.1738 88.5567 84.7903L86.6777 85.4753C87.267 87.0918 88.1156 88.5057 89.2281 89.7039L90.6937 88.343ZM88.5567 84.7903C88.0542 83.412 87.7969 81.8888 87.7969 80.2109H85.7969C85.7969 82.0956 86.0864 83.8536 86.6777 85.4753L88.5567 84.7903ZM87.7969 80.2109V79.2266H85.7969V80.2109H87.7969ZM87.7969 79.2266C87.7969 77.2616 88.0872 75.5491 88.6461 74.0729L86.7757 73.3646C86.1159 75.1072 85.7969 77.0665 85.7969 79.2266H87.7969ZM88.6473 74.0699C89.2167 72.5514 89.9803 71.2927 90.9274 70.275L89.4632 68.9125C88.3166 70.1448 87.4239 71.6361 86.7746 73.3676L88.6473 74.0699ZM90.9274 70.275C91.8864 69.2443 92.9624 68.4759 94.1569 67.956L93.3587 66.1222C91.897 66.7584 90.5979 67.6932 89.4632 68.9125L90.9274 70.275ZM94.1569 67.956C95.3616 67.4316 96.6009 67.1719 97.8828 67.1719V65.1719C96.321 65.1719 94.8103 65.4903 93.3587 66.1222L94.1569 67.956ZM97.8828 67.1719C99.5823 67.1719 100.991 67.465 102.14 68.0122L103 66.2065C101.525 65.5038 99.8083 65.1719 97.8828 65.1719V67.1719ZM102.145 68.0142C103.332 68.5728 104.287 69.3458 105.028 70.3344L106.628 69.1344C105.682 67.8729 104.465 66.8959 102.996 66.2046L102.145 68.0142ZM105.032 70.3397C105.788 71.3335 106.36 72.5249 106.737 73.9308L108.669 73.413C108.233 71.7876 107.556 70.354 106.624 69.129L105.032 70.3397ZM106.738 73.9333C107.118 75.3367 107.312 76.8882 107.312 78.5938H109.312C109.312 76.7368 109.101 75.007 108.668 73.4105L106.738 73.9333ZM107.312 78.5938V80.5391H109.312V78.5938H107.312ZM108.312 79.5391H89.375V81.5391H108.312V79.5391ZM90.375 80.5391V77H88.375V80.5391H90.375ZM89.375 78H103.977V76H89.375V78ZM104.977 77V76.6719H102.977V77H104.977ZM104.975 76.6164C104.907 75.3871 104.65 74.1917 104.207 73.0335L102.339 73.7478C102.709 74.7146 102.921 75.7066 102.978 76.7273L104.975 76.6164ZM104.212 73.0456C103.76 71.817 103.029 70.7896 102.023 69.9848L100.774 71.5465C101.486 72.1167 102.005 72.8392 102.335 73.7357L104.212 73.0456ZM102.023 69.9848C100.933 69.1129 99.5153 68.7344 97.8828 68.7344V70.7344C99.2191 70.7344 100.145 71.0434 100.774 71.5465L102.023 69.9848ZM97.8828 68.7344C96.7502 68.7344 95.6872 68.9784 94.7101 69.4761L95.618 71.2582C96.2972 70.9122 97.0466 70.7344 97.8828 70.7344V68.7344ZM94.7236 69.4694C93.7371 69.9533 92.9043 70.6742 92.2239 71.6053L93.8386 72.7853C94.3457 72.0915 94.9348 71.5935 95.6045 71.265L94.7236 69.4694ZM92.2239 71.6053C91.5464 72.5323 91.0393 73.6386 90.6855 74.9022L92.6114 75.4415C92.9138 74.3614 93.3286 73.4833 93.8386 72.7853L92.2239 71.6053ZM90.6855 74.9022C90.3274 76.1811 90.1562 77.6265 90.1562 79.2266H92.1562C92.1562 77.7641 92.3132 76.5064 92.6114 75.4415L90.6855 74.9022ZM90.1562 79.2266V80.2109H92.1562V79.2266H90.1562ZM90.1562 80.2109C90.1562 81.5059 90.333 82.7389 90.693 83.9044L92.6039 83.3143C92.3076 82.3549 92.1562 81.3222 92.1562 80.2109H90.1562ZM90.6983 83.9213C91.0767 85.0736 91.624 86.1039 92.3456 87.0016L93.9044 85.7484C93.3448 85.0524 92.9077 84.2389 92.5985 83.2974L90.6983 83.9213ZM92.3531 87.0107C93.0993 87.9168 94.0009 88.6313 95.0511 89.1474L95.9333 87.3526C95.1397 86.9625 94.4632 86.427 93.8969 85.7393L92.3531 87.0107ZM95.057 89.1503C96.1481 89.6777 97.3627 89.9297 98.6797 89.9297V87.9297C97.6217 87.9297 96.7113 87.7285 95.9274 87.3497L95.057 89.1503ZM98.6797 89.9297C100.346 89.9297 101.828 89.589 103.077 88.8541L102.063 87.1303C101.188 87.6454 100.075 87.9297 98.6797 87.9297V89.9297ZM103.077 88.8541C104.259 88.1589 105.285 87.2333 106.155 86.0901L104.564 84.8787C103.84 85.8292 103.006 86.5755 102.063 87.1303L103.077 88.8541ZM104.737 86.2673L107.362 88.3532L108.607 86.7874L105.982 84.7015L104.737 86.2673ZM107.15 87.0193C106.657 87.7657 106.022 88.4901 105.234 89.1901L106.563 90.6849C107.463 89.8849 108.218 89.0312 108.819 88.1214L107.15 87.0193ZM105.234 89.1901C104.495 89.8469 103.566 90.398 102.426 90.8308L103.136 92.7005C104.465 92.1958 105.614 91.5281 106.563 90.6849L105.234 89.1901ZM102.422 90.8323C101.345 91.2465 100.027 91.4688 98.4453 91.4688V93.4688C100.207 93.4688 101.78 93.2222 103.14 92.699L102.422 90.8323ZM120.758 88.0859L119.806 87.7781L119.784 87.8481L119.772 87.9206L120.758 88.0859ZM127.695 66.6406V65.6406H126.968L126.744 66.3328L127.695 66.6406ZM132.125 66.6406L133.066 66.9789L133.547 65.6406H132.125V66.6406ZM123.008 92V93H123.711L123.949 92.3383L123.008 92ZM120.102 92L119.115 91.8346L118.92 93H120.102V92ZM114.969 66.6406L115.918 66.3259L115.691 65.6406H114.969V66.6406ZM122.117 88.2031L123.109 88.0746L123.097 87.9795L123.066 87.8884L122.117 88.2031ZM122.609 92V93H123.747L123.601 91.8714L122.609 92ZM119.703 92L118.763 92.3406L119.002 93H119.703V92ZM110.516 66.6406V65.6406H109.09L109.575 66.9813L110.516 66.6406ZM121.709 88.3937L128.647 66.9484L126.744 66.3328L119.806 87.7781L121.709 88.3937ZM127.695 67.6406H132.125V65.6406H127.695V67.6406ZM131.184 66.3023L122.067 91.6617L123.949 92.3383L133.066 66.9789L131.184 66.3023ZM123.008 91H120.102V93H123.008V91ZM121.088 92.1654L121.744 88.2513L119.772 87.9206L119.115 91.8346L121.088 92.1654ZM114.02 66.9553L121.168 88.5178L123.066 87.8884L115.918 66.3259L114.02 66.9553ZM121.125 88.3317L121.618 92.1286L123.601 91.8714L123.109 88.0746L121.125 88.3317ZM122.609 91H119.703V93H122.609V91ZM120.643 91.6594L111.456 66.3L109.575 66.9813L118.763 92.3406L120.643 91.6594ZM110.516 67.6406H114.969V65.6406H110.516V67.6406Z" fill="white"/>
</svg>
